<svg width="118" height="23" viewBox="0 0 118 23" fill="none" xmlns="http://www.w3.org/2000/svg">
<path d="M10.25 11.6346C10.25 12.2582 10.735 12.743 11.3579 12.743C11.9815 12.743 12.4664 12.2578 12.4664 11.6346C12.4664 11.0117 11.9815 10.5271 11.3579 10.5271C10.735 10.5271 10.25 11.0117 10.25 11.6346ZM19.6015 10.5271C18.9779 10.5271 18.4929 11.012 18.4929 11.6346C18.4929 12.2582 18.9779 12.743 19.6015 12.743C20.2251 12.743 20.7094 12.2578 20.7094 11.6346C20.7094 11.0117 20.2251 10.5271 19.6015 10.5271ZM19.6015 18.9079C18.9779 18.9079 18.4929 19.3925 18.4929 20.0158C18.4929 20.639 18.9779 21.1237 19.6015 21.1237C20.2251 21.1237 20.7094 20.639 20.7094 20.0158C20.7094 19.3925 20.2251 18.9079 19.6015 18.9079Z" fill="#20005f85"/>
<path d="M21.9565 1.31399C20.8479 -0.0714683 18.8392 -0.140796 17.6615 0.967433L17.5232 1.10534L17.2463 1.31399C16.1385 2.21412 14.4751 2.14513 13.4363 1.10534V1.03647C13.0896 0.689761 12.605 0.41293 12.1207 0.274314C12.0509 0.274314 11.9122 0.205104 11.8431 0.205104H10.7352C10.6661 0.205104 10.597 0.20518 10.5268 0.274314H10.3885C10.3194 0.274314 10.2502 0.344033 10.1808 0.344033C10.1808 0.344033 10.1116 0.344118 10.1116 0.412904C10.0425 0.412904 9.97336 0.482453 9.90388 0.482453C9.90388 0.482453 9.83475 0.482368 9.83475 0.551155C9.76561 0.620289 9.69648 0.620271 9.6263 0.689405C9.6263 0.689405 9.55716 0.689473 9.55716 0.758954C9.48803 0.827394 9.4189 0.827368 9.34942 0.897544L9.28028 0.966584L9.14202 1.10467L8.86444 1.31331C7.75656 2.21345 6.09387 2.14446 5.12426 1.10467C5.12426 1.10467 5.05512 1.10458 5.05512 1.03579L4.91685 0.897544C4.501 0.550832 4.01637 0.27356 3.46156 0.204426H3.18537H2.2842H2.21506C2.21506 0.27356 2.14593 0.273526 2.0768 0.343355H2.00766C1.66165 0.481623 1.31493 0.619966 1.03804 0.897544L0.968919 0.966584L0.761162 1.17404C0.483584 1.45162 0.345323 1.79773 0.206708 2.07496C0.206708 2.14444 0.137572 2.21344 0.137572 2.28327C0.137572 2.35241 0.0684361 2.42132 0.0684361 2.56028C-0.000697953 3.04526 -0.000696172 3.53059 0.137572 4.01488C0.137572 4.08401 0.206708 4.15337 0.206708 4.22285V4.29172C0.206708 4.36085 0.275833 4.43072 0.275833 4.49986C0.344967 4.56934 0.34497 4.63841 0.414105 4.77738C0.552373 4.84582 0.690994 4.98473 0.760823 5.05456L0.899084 5.19247L1.03736 5.33072C2.0761 6.36947 2.0761 8.17119 0.968219 9.27942C0.829257 9.41734 0.62151 9.62544 0.552376 9.7644C0.483242 9.83319 0.483239 9.90228 0.414105 10.0412V10.1108C0.34497 10.1799 0.344967 10.2491 0.275833 10.3186V10.3873C0.275833 10.4571 0.206708 10.5266 0.206708 10.5958V10.6648C0.206708 10.7339 0.206706 10.8031 0.137572 10.8723V11.9114C0.137572 11.9806 0.137574 12.0496 0.206708 12.1194V12.1886C0.344976 12.6736 0.621851 13.1582 1.03804 13.574C2.14593 14.6822 2.14593 16.4833 1.03804 17.5919L0.968919 17.6606L0.829948 17.7989V17.8684C0.761509 17.9376 0.691687 18.0062 0.691687 18.076C0.691687 18.076 0.691685 18.1446 0.622551 18.1446C0.553417 18.2144 0.553413 18.2839 0.484279 18.3531L0.415144 18.4221C0.415144 18.4912 0.346018 18.4912 0.346018 18.561C0.346018 18.6291 0.276882 18.6293 0.276882 18.6998C0.276882 18.7679 0.276881 18.7679 0.207747 18.8374C0.0694786 19.1146 0 19.4605 0 19.7381V20.292C0.069134 20.5004 0.0691312 20.7077 0.207747 20.847C0.207747 20.9158 0.276882 20.9852 0.276882 20.9852C0.276882 20.9852 0.276884 21.0541 0.346018 21.0541C0.346018 21.1229 0.415144 21.1928 0.415144 21.2616C0.415144 21.2616 0.415145 21.3313 0.484279 21.3313C0.553413 21.4696 0.622545 21.5394 0.692026 21.6081C0.692026 21.6081 0.692033 21.678 0.761862 21.678C0.761862 21.678 0.761858 21.7472 0.830298 21.7472C0.830298 21.8164 0.900123 21.8163 0.900123 21.8163L0.969258 21.8851C1.03839 21.9546 1.10753 21.9546 1.10753 22.0237L1.17667 22.0928C1.17667 22.0928 1.2458 22.0929 1.2458 22.1616C1.31494 22.2308 1.38406 22.3009 1.45424 22.3009C1.45424 22.3009 1.52337 22.301 1.52337 22.3698C1.59181 22.4386 1.66165 22.4386 1.73113 22.508H1.80026C1.86939 22.5768 1.93852 22.5767 2.07714 22.5767C2.14627 22.5767 2.2849 22.6459 2.35403 22.6459H2.42316C2.49299 22.6459 2.56212 22.6459 2.6316 22.715H3.2552C3.46226 22.715 3.60122 22.6459 3.80897 22.6459H3.8781C3.94724 22.6459 4.01706 22.5767 4.08585 22.5767H4.15499C4.22482 22.5767 4.29395 22.508 4.36343 22.508H4.43256C4.57083 22.4386 4.77928 22.3005 4.91755 22.2303L5.1253 22.0231L5.19443 21.9538C6.30231 20.7758 8.10327 20.7758 9.21185 21.9538C10.4583 23.2695 12.5365 23.1999 13.7146 21.746C14.5452 20.7066 14.5452 19.1833 13.7146 18.0747C12.606 16.6892 10.5973 16.6197 9.41959 17.7283L9.28132 17.8671L9.00444 18.0747C7.89586 18.9752 6.23318 18.9062 5.19443 17.8671L5.05616 17.7283L4.84771 17.4515C3.94723 16.3432 4.01706 14.6806 5.05616 13.6412C5.67976 13.0874 5.95664 12.3252 5.95664 11.5637V11.4246V11.3556C5.95664 10.6635 5.67976 9.97068 5.1253 9.48536C5.1253 9.41622 5.05616 9.41623 5.05616 9.34744L4.84771 9.06993C3.94723 7.96135 4.01706 6.29942 5.05616 5.26032L5.1253 5.19111L5.19443 5.12207C6.30231 3.94471 8.10327 3.94471 9.21185 5.12207L9.28098 5.19111L9.35012 5.26032L9.48838 5.39857C9.55751 5.39857 9.55752 5.46795 9.62665 5.46795C9.69648 5.46795 9.69648 5.5375 9.76561 5.5375C9.83475 5.5375 9.83475 5.60671 9.90388 5.60671C9.97302 5.60671 9.97301 5.67541 10.0421 5.67541C10.1113 5.67541 10.1113 5.74496 10.1804 5.74496C10.2495 5.74496 10.2496 5.81366 10.3187 5.81366C10.3878 5.81366 10.3878 5.81373 10.4569 5.88321C10.5268 5.88321 10.5268 5.88311 10.5959 5.95259H11.7733C11.8424 5.95259 11.9116 5.95269 11.981 5.88321H12.12C12.1891 5.88321 12.2576 5.81366 12.3277 5.81366H12.3969C12.466 5.81366 12.5351 5.74489 12.6738 5.67541C12.9513 5.53749 13.2282 5.32914 13.4356 5.12139L13.5048 5.05252C14.6126 3.87412 16.4143 3.87412 17.5222 5.05252C18.7002 6.43763 20.8469 6.36785 21.9558 4.91325C22.7871 3.87624 22.7871 2.35274 21.9565 1.31399Z" fill="#20005f85"/>
<path d="M37.7494 9.90267C37.3342 9.48717 36.9875 9.21035 36.5022 9.0026C36.087 8.79416 35.6017 8.65621 34.9788 8.65621C34.4243 8.65621 33.8702 8.79416 33.4547 9.0026C33.0389 9.21035 32.6928 9.48717 32.4153 9.90267C32.1384 10.2494 31.9306 10.6648 31.7917 11.1498C31.6541 11.6348 31.5846 12.1194 31.5846 12.6047C31.5846 13.0897 31.6538 13.5744 31.8615 14.0593C31.9998 14.544 32.2767 14.8907 32.5542 15.2368C32.8311 15.5842 33.2463 15.8607 33.6621 16.0681C34.078 16.2759 34.5626 16.3456 35.1164 16.3456C35.74 16.3456 36.225 16.2074 36.6405 15.9993C37.0563 15.7912 37.4725 15.5143 37.8185 15.0992L39.2734 16.6227C38.719 17.2463 38.0961 17.6616 37.4034 17.9388C36.7106 18.2157 35.9484 18.3541 35.1167 18.3541C34.2861 18.3541 33.4551 18.2157 32.7623 17.9388C32.0696 17.6616 31.446 17.2462 30.9614 16.7612C30.4764 16.2759 30.0602 15.6526 29.7833 14.9603C29.5064 14.2679 29.3682 13.4363 29.3682 12.6053C29.3682 11.7743 29.5064 10.9432 29.7833 10.2501C30.0602 9.557 30.476 8.93382 30.9614 8.37971C31.446 7.89438 32.0693 7.47919 32.7623 7.20161C33.4551 6.92508 34.2864 6.7872 35.1167 6.7872C35.9488 6.7872 36.7106 6.92508 37.4034 7.20161C38.1652 7.47919 38.7888 7.96315 39.3426 8.51796L37.7494 9.90267ZM42.4592 12.4655C42.4592 13.0203 42.529 13.5741 42.7367 13.99C42.875 14.4749 43.1526 14.8904 43.4295 15.2364C43.7064 15.5838 44.1222 15.8603 44.5374 15.9986C44.9532 16.2067 45.5077 16.2752 46.0614 16.2752C46.6159 16.2752 47.1009 16.2067 47.5855 15.9986C48.0013 15.7905 48.4169 15.5137 48.6941 15.2364C48.9703 14.8904 49.2479 14.4749 49.3861 13.99C49.5251 13.505 49.663 13.0203 49.663 12.4655C49.663 11.9114 49.5939 11.3573 49.3861 10.9425C49.2479 10.4575 48.9703 10.0412 48.6941 9.69521C48.4165 9.34884 48.0013 9.07132 47.5855 8.93305C47.1697 8.72495 46.6159 8.65621 46.0614 8.65621C45.5077 8.65621 45.0227 8.72495 44.5374 8.93305C44.1222 9.14045 43.706 9.41798 43.4295 9.69521C43.1526 10.0412 42.875 10.4572 42.7367 10.9425C42.5981 11.4265 42.4592 11.9114 42.4592 12.4655ZM40.2431 12.4655C40.2431 11.6345 40.3813 10.8722 40.6582 10.1802C40.9358 9.48711 41.3509 8.8643 41.9054 8.30914C42.4592 7.75537 43.014 7.33991 43.7755 7.06268C44.4682 6.78649 45.2304 6.57804 46.0614 6.57804C46.8924 6.57804 47.6547 6.71632 48.3474 7.06268C49.0401 7.33991 49.663 7.75537 50.2175 8.30914C50.7719 8.8643 51.1186 9.48711 51.4647 10.1802C51.7415 10.8722 51.8798 11.6348 51.8798 12.4655C51.8798 13.2972 51.7415 14.059 51.4647 14.7521C51.1878 15.4438 50.7719 16.0673 50.2175 16.6218C49.663 17.1763 49.1096 17.5224 48.3474 17.8691C47.6547 18.1453 46.8924 18.3538 46.0614 18.3538C45.2304 18.3538 44.4682 18.2155 43.7755 17.8691C43.0835 17.5922 42.4592 17.1763 41.9054 16.6218C41.3509 16.0673 41.0049 15.514 40.6582 14.7521C40.4504 14.059 40.2431 13.2968 40.2431 12.4655ZM54.0275 18.0764H56.105V6.99313H54.0275V18.0764ZM53.5428 2.97607C53.5428 2.56057 53.6804 2.21422 53.958 1.86786C54.2349 1.59028 54.5816 1.38288 54.9967 1.38288C55.4126 1.38288 55.7586 1.52149 56.0362 1.86786C56.3131 2.14509 56.4513 2.56057 56.4513 2.97607C56.4513 3.39087 56.3131 3.73792 56.0362 4.08394C55.7586 4.36082 55.4126 4.56892 54.9967 4.56892C54.5816 4.56892 54.2349 4.43065 53.958 4.08394C53.6804 3.80775 53.5428 3.39122 53.5428 2.97607ZM59.0145 6.99313H61.092V8.72491H61.1618C61.4387 8.10132 61.8546 7.61669 62.5473 7.26997C63.1702 6.9243 63.9328 6.71629 64.8325 6.71629C65.387 6.71629 65.872 6.78609 66.3566 6.99279C66.8416 7.1321 67.2571 7.40894 67.6031 7.75495C67.9498 8.10097 68.2267 8.51685 68.5043 9.07096C68.712 9.62542 68.851 10.249 68.851 11.0112V18.1446H66.7728V11.5651C66.7728 11.0801 66.7037 10.5954 66.5644 10.2491C66.4261 9.90235 66.2183 9.55605 66.0106 9.34865C65.8021 9.13986 65.5256 8.9328 65.1792 8.86367C64.9017 8.79384 64.5557 8.72457 64.2096 8.72457C63.7938 8.72457 63.3783 8.79375 63.0316 8.93271C62.6856 9.07098 62.3389 9.27947 62.062 9.62549C61.7844 9.90237 61.577 10.3183 61.4384 10.8032C61.3001 11.2882 61.2306 11.8419 61.2306 12.4651V18.2148H59.1524V6.99279L59.0145 6.99313ZM76.5395 16.345C77.0939 16.345 77.5782 16.2752 78.0628 16.0675C78.5478 15.86 78.8949 15.5835 79.2409 15.2361C79.5185 14.8901 79.7954 14.4746 79.9336 13.9896C80.0719 13.5046 80.2105 13.02 80.2105 12.3961C80.2105 11.842 80.1414 11.2886 79.9336 10.8032C79.7954 10.3183 79.5185 9.9023 79.2409 9.55594C78.8949 9.20992 78.5482 8.93267 78.0628 8.72457C77.5782 8.51682 77.0939 8.44773 76.5395 8.44773C75.985 8.44773 75.5007 8.51682 75.0154 8.72457C74.5304 8.93267 74.184 9.20957 73.8373 9.55594C73.5604 9.9023 73.2836 10.3183 73.1453 10.8032C73.0063 11.2882 72.8677 11.7732 72.8677 12.3961C72.8677 12.9506 72.9368 13.5046 73.1453 13.9896C73.2836 14.4746 73.5604 14.8901 73.8373 15.2361C74.1149 15.5835 74.5301 15.86 75.0154 16.0675C75.4309 16.2064 75.9853 16.345 76.5395 16.345ZM82.288 18.007H80.2105V16.4138H80.1414C79.7262 17.0374 79.1718 17.4532 78.479 17.7992C77.7863 18.1449 77.0241 18.2842 76.2622 18.2842C75.4309 18.2842 74.5999 18.145 73.9072 17.8688C73.2151 17.5919 72.5915 17.1759 72.1062 16.6215C71.6209 16.067 71.2057 15.4435 70.9983 14.7518C70.7207 14.0587 70.5825 13.2968 70.5825 12.4651C70.5825 11.6341 70.7207 10.872 70.9983 10.1108C71.2752 9.41773 71.6212 8.79403 72.1062 8.24061C72.5912 7.6858 73.2148 7.27001 73.9072 6.99347C74.5999 6.71624 75.3621 6.57804 76.2622 6.57804C77.0241 6.57804 77.7863 6.71632 78.479 7.06268C79.1718 7.4094 79.7262 7.89361 80.0722 8.44807H80.1414V0.135742H82.2196V18.0067H82.288V18.007ZM92.8867 11.5654C92.8867 11.0804 92.8176 10.6649 92.679 10.2494C92.5407 9.83355 92.3322 9.48711 92.0554 9.21023C91.7785 8.933 91.4318 8.72537 91.0851 8.51762C90.6699 8.37935 90.2537 8.24112 89.7003 8.24112C89.2153 8.24112 88.7307 8.30918 88.3148 8.51762C87.8997 8.72537 87.553 8.93307 87.2069 9.27978C86.9301 9.55631 86.6525 9.90276 86.5142 10.3186C86.376 10.7341 86.2366 11.0805 86.2366 11.4261H92.8871V11.5654H92.8867ZM86.2363 13.2968C86.2363 13.7818 86.3753 14.1973 86.583 14.6132C86.7908 15.028 87.068 15.3746 87.4143 15.6515C87.7604 15.9287 88.1762 16.1366 88.5917 16.2749C89.0767 16.4135 89.4922 16.4832 89.9772 16.4832C90.6008 16.4832 91.2244 16.345 91.7086 15.9982C92.1936 15.7214 92.6098 15.306 93.025 14.8207L94.6182 16.0671C93.4401 17.5919 91.7785 18.3531 89.7003 18.3531C88.7998 18.3531 88.0379 18.2147 87.3452 17.9378C86.6525 17.6606 86.0296 17.2451 85.5443 16.6907C85.0589 16.1362 84.6438 15.5832 84.4357 14.8207C84.1588 14.1283 84.0205 13.3657 84.0205 12.5347C84.0205 11.7037 84.1588 10.9421 84.4357 10.2491C84.7133 9.55598 85.1284 8.93281 85.6137 8.37869C86.0984 7.82353 86.7216 7.47808 87.4147 7.13206C88.1074 6.85379 88.8696 6.71629 89.7006 6.71629C90.6703 6.71629 91.5016 6.85387 92.1943 7.20093C92.8871 7.54799 93.4408 7.96247 93.8567 8.51728C94.2718 9.07139 94.6185 9.69527 94.8263 10.3873C95.0347 11.0804 95.1032 11.7732 95.1032 12.535V13.2968H86.2363ZM103.277 9.76442C102.999 9.48684 102.723 9.21 102.376 9.0026C102.03 8.79416 101.545 8.65621 101.06 8.65621C100.575 8.65621 100.16 8.79416 99.7438 9.0026C99.3978 9.21035 99.1894 9.48717 99.1894 9.90267C99.1894 10.2494 99.3283 10.5269 99.5361 10.6648C99.7438 10.8722 100.021 11.0115 100.298 11.1498C100.575 11.2884 100.922 11.3573 101.198 11.4265C101.545 11.4967 101.822 11.5654 102.03 11.5654C102.445 11.7037 102.93 11.7734 103.277 11.9805C103.692 12.1191 104.039 12.3268 104.315 12.6044C104.593 12.8816 104.801 13.1583 105.008 13.505C105.147 13.8513 105.285 14.2672 105.285 14.821C105.285 15.4439 105.147 15.9987 104.869 16.4138C104.593 16.8297 104.247 17.2455 103.831 17.522C103.416 17.7993 102.93 18.007 102.376 18.1449C101.822 18.2843 101.268 18.3534 100.783 18.3534C99.8821 18.3534 99.0511 18.215 98.3584 17.9382C97.6663 17.6609 97.0427 17.1764 96.4883 16.4138L98.0815 15.0985C98.4282 15.4438 98.7742 15.7217 99.1894 15.9986C99.6052 16.2751 100.091 16.4138 100.713 16.4138C100.99 16.4138 101.268 16.4138 101.545 16.345C101.822 16.2751 102.03 16.2068 102.238 16.0675C102.445 15.9292 102.584 15.7905 102.723 15.6519C102.861 15.4438 102.93 15.2364 102.93 15.0283C102.93 14.7521 102.861 14.4745 102.653 14.2675C102.445 14.059 102.238 13.9204 101.961 13.7822C101.684 13.6435 101.406 13.5745 101.129 13.5053L100.298 13.2972C99.8821 13.1586 99.3975 13.0894 99.0514 12.9508C98.6356 12.8122 98.2896 12.6049 98.012 12.3964C97.7351 12.1887 97.4582 11.8422 97.2501 11.4965C97.0424 11.1498 96.9733 10.6648 96.9733 10.1802C96.9733 9.62573 97.1115 9.07171 97.3193 8.65621C97.5277 8.24106 97.8737 7.89359 98.2896 7.6167C98.7047 7.33982 99.1202 7.13244 99.6052 6.99313C100.09 6.85452 100.644 6.78652 101.129 6.78652C101.891 6.78652 102.584 6.9244 103.277 7.20093C103.97 7.47851 104.523 7.96238 104.939 8.58632L103.277 9.76442ZM107.295 0.413261H109.372V11.6348L114.083 6.92477H116.923L111.866 11.9115L117.407 17.8688H114.429L109.372 12.1883V17.8688H107.295V0.413261Z" fill="#20005f85"/>
</svg>
