<svg width="98" height="34" viewBox="0 0 98 34" fill="none" xmlns="http://www.w3.org/2000/svg">
<path d="M96.7171 0.617071L96.7022 0.642855C96.7022 0.642855 96.7015 0.642855 96.7008 0.642855L96.7171 0.548031H96.4145C96.3454 0.543862 96.2769 0.546681 96.2075 0.553629C95.6165 0.615467 95.1531 1.04648 95.0228 1.59364C94.9964 1.69127 94.9822 1.79372 94.9822 1.89898C94.9822 1.95179 94.9857 2.00499 94.9923 2.0564C94.5736 7.47179 94.1543 12.8284 93.4084 17.952L93.4268 17.9447L93.3271 18.0337C93.7222 17.9556 94.1311 18.0087 94.4924 18.1852L94.1435 17.6456L94.6091 18.1035C95.331 12.908 97.3234 5.06783 97.8476 2.87742C97.9317 2.58525 97.9827 2.28404 97.9998 1.98041C97.9893 1.26266 97.4328 0.671614 96.7171 0.617071Z" fill="#20005f85"/>
<path d="M28.5073 20.55C28.5472 20.5313 28.5868 20.5108 28.6254 20.4903L28.5889 20.597C29.5492 20.3274 30.565 20.3274 31.5249 20.597C29.7194 17.2063 26.0959 8.56243 23.8357 2.73746L23.4226 2.94102L23.7659 2.73746C23.1044 2.95876 22.3891 2.95876 21.7269 2.73746C19.3156 8.7608 16.6013 15.5405 14.1201 20.597L14.6447 20.3636L14.8198 20.3063L14.1201 20.597C15.0626 20.3691 16.0444 20.3615 16.9897 20.5741L17.0561 20.597C17.0567 20.5939 17.0574 20.5915 17.0588 20.5891C17.0696 20.5918 17.08 20.5943 17.0908 20.597C17.0814 20.5915 17.0717 20.5866 17.0616 20.5814C17.705 18.9976 18.4283 17.1952 19.1488 15.379L19.1645 15.3886C21.555 15.3195 23.9462 15.3195 26.4607 15.3869C27.1441 17.1059 27.8298 18.828 28.5073 20.55ZM22.7601 5.9028C23.7961 8.65704 24.8894 11.4327 25.9955 14.2168L25.933 14.1895C23.8315 14.259 21.7269 14.259 19.6185 14.1902C20.9043 10.9256 22.1174 7.76386 22.7601 5.9028Z" fill="#20005f85"/>
<path d="M10.751 13.2431C13.1088 9.09407 16.8692 2.60723 18.2379 0.673217L18.4422 0.465756C18.4217 0.468883 18.4016 0.47179 18.3818 0.474916C18.403 0.446776 18.4224 0.420372 18.4422 0.395359C18.3832 0.429405 18.3234 0.460605 18.2636 0.492219C17.3454 0.624581 16.412 0.597764 15.5028 0.415375L15.4715 0.39502C15.4688 0.399536 15.4667 0.403581 15.4646 0.407403C15.4434 0.402886 15.4219 0.399536 15.4007 0.39502L15.4347 0.464399C14.5533 2.12257 11.4246 7.07043 9.51803 10.2971C7.48326 7.03047 5.15909 3.12525 3.57491 0.411304L3.59993 0.39502C3.58986 0.397451 3.57943 0.400229 3.56936 0.402314C3.56797 0.399882 3.56659 0.397104 3.5652 0.39502L3.50613 0.418938C2.57299 0.656217 1.594 0.648974 0.664338 0.39502L0.690758 0.432169C0.670261 0.419662 0.649403 0.407526 0.628906 0.39502C3.1021 4.0289 6.92843 11.0527 8.30382 13.3373L8.23677 13.3609L8.08461 22.9261C8.55813 22.84 9.0372 22.7889 9.51767 22.7739C9.99883 22.784 10.4786 22.8344 10.9507 22.9261L10.8576 13.2793L10.751 13.2431Z" fill="#20005f85"/>
<path d="M58.5052 2.45798V2.50412C52.1792 2.50412 48.8584 6.50068 48.8584 11.6962C48.8584 17.3579 52.4818 20.8183 58.435 20.8183C64.9124 20.8183 68.0811 16.9034 68.0811 11.7778C68.0814 5.95208 64.3065 2.45798 58.5052 2.45798ZM58.4354 19.9444C54.2175 19.9444 51.7248 16.926 51.7248 11.8709C51.7947 6.0459 54.8935 3.71665 58.2842 3.71665V3.63455H58.4357C62.2794 3.63455 65.1455 6.27941 65.1455 11.7893C65.1455 17.2995 62.2794 19.9444 58.4354 19.9444Z" fill="#20005f85"/>
<path d="M80.1863 1.45554C73.9302 1.45554 69.0957 4.95076 69.0957 11.6262C69.0957 17.0548 72.2637 21.8779 80.2554 21.8779C86.966 21.8779 91.3346 18.1846 91.3346 11.6957C91.37 5.638 87.3043 1.45554 80.1863 1.45554ZM72.0313 11.6957C72.148 4.6128 76.4465 2.58563 80.1867 2.58563C84.9274 2.58563 88.3413 5.43959 88.3413 11.777C88.3413 18.6386 84.1127 20.8993 80.1867 20.8993C75.9573 20.8997 72.0313 18.4059 72.0313 11.6957Z" fill="#20005f85"/>
<path d="M93.4415 20.1639C92.605 20.1455 91.9129 20.8084 91.8945 21.6457C91.8945 22.5538 92.5703 23.0078 93.5604 22.9269C93.6378 22.9311 93.7156 22.9293 93.7931 22.9196C94.4959 22.8345 94.9969 22.1956 94.9121 21.4935C94.8204 20.7466 94.194 20.1806 93.4415 20.1639Z" fill="#20005f85"/>
<path d="M35.2989 12.302C38.6072 12.302 41.9274 12.2322 45.1659 12.302L45.2392 12.2634C45.2305 15.0419 45.1559 17.8206 45.0148 20.5971L45.2097 20.5335L45.0964 20.5971C45.8583 20.4126 46.6462 20.3744 47.4199 20.4814L48.032 20.6666C48.0313 20.643 48.0307 20.6193 48.03 20.5964C48.0307 20.5964 48.0313 20.5971 48.032 20.5971L48.03 20.5954C47.8149 14.6696 47.8156 8.74039 48.032 2.80737C47.0666 3.02902 46.0622 3.02902 45.0968 2.80737L45.1944 2.90576L45.0151 2.80737C45.1562 5.5703 45.2302 8.33599 45.2396 11.1024C41.918 11.1719 38.6048 11.1719 35.2992 11.1017L35.295 11.1038C35.3044 8.33735 35.3791 5.57134 35.5202 2.80737C34.554 3.02902 33.5504 3.02902 32.5842 2.80737L32.6555 2.89032L32.5029 2.80737C32.7357 8.76402 32.7357 14.7176 32.5029 20.6666L33.0425 20.5043C33.8648 20.3702 34.7069 20.4001 35.5205 20.5971C35.3795 17.8324 35.3048 15.0664 35.2954 12.3L35.2989 12.302Z" fill="#20005f85"/>
<path d="M27.3076 32.8632H28.9272V29.6952H31.6412V29.1005H28.9272V26.9806H31.9792V26.3865H27.3076V32.8632Z" fill="#20005f85"/>
<path d="M35.1473 26.3865H33.4814V32.8636H35.1473V26.3865Z" fill="#20005f85"/>
<path d="M41.3227 30.4526L37.5596 26.3865H36.6511H36.5V33.0154H37.5596V28.4949L41.6253 33.0154H42.3826V26.3865H41.3227V30.4526Z" fill="#20005f85"/>
<path d="M46.4015 26.2348L43.2676 32.8633H44.3282L45.2367 31.0581H47.8109L48.5565 32.8633H50.2223L47.2047 26.2348H46.4015ZM45.5507 30.4527L46.6583 28.3438L47.5667 30.4527H45.5507Z" fill="#20005f85"/>
<path d="M55.7918 30.4526L52.0287 26.3865H50.9688L51.0042 33.0154H52.0638V28.4949L56.1295 33.0154H56.8868V26.3865H55.7918V30.4526Z" fill="#20005f85"/>
<path d="M60.021 29.5436C60.0202 29.5488 60.0203 29.5529 60.0195 29.5577C60.0203 29.561 60.0202 29.5654 60.021 29.5687V29.5436Z" fill="#20005f85"/>
<path d="M60.6144 27.6099C60.9177 27.4581 61.0692 27.307 61.3718 27.1551C61.658 27.0318 61.9697 26.9797 62.2803 27.0033C62.4324 27.0033 62.735 27.1551 62.8861 27.1551C63.2422 27.2392 63.6171 27.1854 63.9353 27.0033L64.3894 27.4581C64.5026 27.686 64.6569 27.891 64.8441 28.0644L65.4378 27.6096C65.1467 27.3066 64.9956 27.0034 64.8441 26.864C64.6312 26.617 64.3737 26.4113 64.0868 26.2578C63.7835 26.106 63.4809 26.1059 63.1776 25.9548C62.8431 25.8301 62.4856 25.7783 62.1292 25.8033C61.6108 25.8158 61.0984 25.9184 60.6148 26.106C60.1778 26.2738 59.781 26.5323 59.4496 26.864C59.113 27.1437 58.8524 27.5047 58.6922 27.9122C58.5199 28.3479 58.4181 28.8081 58.3896 29.275C58.4188 29.7392 58.5213 30.1947 58.6922 30.6268C58.8552 31.0368 59.115 31.4001 59.4496 31.6867C59.7848 32.0108 60.1809 32.2641 60.6148 32.4322C61.0998 32.6122 61.6122 32.7071 62.1292 32.712C62.4366 32.737 62.7444 32.6848 63.0261 32.5608C63.3294 32.409 63.4809 32.2578 63.7835 32.1064C64.0639 31.9459 64.3188 31.7458 64.5408 31.512C64.7281 31.3397 64.882 31.134 64.9956 30.9061L64.3897 30.4521C64.2765 30.6797 64.1222 30.8852 63.9357 31.0575L63.4809 31.512C63.3294 31.6634 63.0386 31.6516 62.8865 31.8034C62.735 31.9549 62.5839 31.9549 62.2806 31.9549C61.978 31.9549 61.6754 31.8034 61.3721 31.8034C61.0754 31.7503 60.8069 31.5933 60.6148 31.3605C60.4348 31.1284 60.2858 30.8744 60.1725 30.6031C60.0388 30.271 59.9874 29.9122 60.02 29.5561C59.9467 28.854 60.1604 28.1515 60.6144 27.6099Z" fill="#20005f85"/>
<path d="M66.498 32.8632H71.3211V32.258H68.0002V29.6952H70.7152V29.1005H68.0002V26.9806H71.3211V26.3865H66.498V32.8632Z" fill="#20005f85"/>
</svg>
