<svg width="122" height="32" viewBox="0 0 122 32" fill="none" xmlns="http://www.w3.org/2000/svg">
<path fill-rule="evenodd" clip-rule="evenodd" d="M1.13855 30.6942H26.6513L18.9575 18.7476L19.3261 18.5102L19.1369 18.1174C22.1164 16.6817 24.0418 13.6143 24.0418 10.3029C24.0418 5.94888 20.7944 2.25424 16.4884 1.70881C15.9609 1.63883 15.044 1.60944 14.7679 1.60944L1.13855 1.60901V30.6942ZM28.2516 31.5671H0.267516L0.265625 31.1306V0.736084H8.1676V1.12424V0.736229L14.7679 0.73652C14.9946 0.73652 15.9887 0.762126 16.6005 0.843017C21.3394 1.4433 24.9147 5.51024 24.9147 10.3029C24.9147 13.7832 22.9821 17.0187 19.9517 18.6794L28.2516 31.5671Z" fill="#20005f85"/>
<mask id="mask0" mask-type="alpha" maskUnits="userSpaceOnUse" x="0" y="0" width="29" height="32">
<path opacity="0.8" d="M0.265625 31.5672H28.2517V0.736084H0.265625V31.5672Z" fill="white"/>
</mask>
<g mask="url(#mask0)">
<path fill-rule="evenodd" clip-rule="evenodd" d="M0.662109 18.9482H19.3241V18.0753H0.662109V18.9482Z" fill="#20005f85"/>
<path fill-rule="evenodd" clip-rule="evenodd" d="M1.08411 31.3592L0.342773 30.8986L13.4883 9.75812L14.2296 10.2187L1.08411 31.3592Z" fill="#20005f85"/>
<path fill-rule="evenodd" clip-rule="evenodd" d="M13.417 31.1462H14.2899V10.069H13.417V31.1462Z" fill="#20005f85"/>
<path fill-rule="evenodd" clip-rule="evenodd" d="M27.0485 31.316L7.79492 1.38661L8.52937 0.914734L27.7829 30.8435L27.0485 31.316Z" fill="#20005f85"/>
</g>
<path d="M43.2431 12.241V15.8109H45.3526C46.8942 15.8109 47.7055 14.9996 47.7055 14.026C47.7055 13.0524 46.8942 12.241 45.3526 12.241H43.2431ZM45.3526 9.56357C48.4357 9.56357 50.4641 11.4297 50.4641 14.026C50.4641 16.6223 49.0848 18.0016 47.4621 18.3261L50.7075 24.1678H47.5432L44.5413 18.6506H43.2431V24.1678H40.3223V9.56357H45.3526Z" fill="#20005f85"/>
<path d="M54.9264 18.1638H59.3888C59.3478 17.6114 59.099 17.095 58.6925 16.7187C58.2861 16.3423 57.7521 16.1339 57.1982 16.1354C56.6325 16.1209 56.0825 16.3226 55.6604 16.6995C55.2383 17.0764 54.9758 17.6001 54.9264 18.1638ZM62.1474 19.1374C62.1689 19.4373 62.1415 19.7388 62.0663 20.0299H54.9264C55.0076 20.6467 55.3219 21.209 55.8048 21.6013C56.2876 21.9937 56.9024 22.1862 57.5227 22.1394C58.4524 22.1359 59.3481 21.7891 60.0379 21.1658L61.6606 22.9507C60.4814 24.0028 58.9395 24.5555 57.3605 24.4923C56.6584 24.5284 55.9565 24.4168 55.3003 24.1645C54.6441 23.9123 54.0482 23.5251 53.5511 23.028C53.0539 22.5309 52.6667 21.9349 52.4145 21.2787C52.1622 20.6225 52.0506 19.9206 52.0867 19.2185C52.1679 15.9732 54.1962 13.7825 57.2793 13.7825C60.119 13.7825 62.1474 15.9732 62.1474 19.1374Z" fill="#20005f85"/>
<path d="M67.0963 19.1374C67.068 19.4956 67.1141 19.8558 67.2317 20.1953C67.3493 20.5348 67.5359 20.8464 67.7798 21.1103C68.0236 21.3742 68.3195 21.5848 68.6487 21.7288C68.9778 21.8729 69.3333 21.9472 69.6926 21.9472C70.0519 21.9472 70.4074 21.8729 70.7366 21.7288C71.0658 21.5848 71.3616 21.3742 71.6055 21.1103C71.8493 20.8464 72.0359 20.5348 72.1536 20.1953C72.2712 19.8558 72.3173 19.4956 72.2889 19.1374C72.3173 18.7792 72.2712 18.419 72.1536 18.0794C72.0359 17.7399 71.8493 17.4284 71.6055 17.1645C71.3616 16.9006 71.0658 16.69 70.7366 16.5459C70.4074 16.4019 70.0519 16.3275 69.6926 16.3275C69.3333 16.3275 68.9778 16.4019 68.6487 16.5459C68.3195 16.69 68.0236 16.9006 67.7798 17.1645C67.5359 17.4284 67.3493 17.7399 67.2317 18.0794C67.1141 18.419 67.068 18.7792 67.0963 19.1374ZM75.0475 19.1374C75.0475 22.2205 72.938 24.4923 70.1794 24.4923C69.6158 24.4996 69.057 24.3878 68.5397 24.164C68.0223 23.9403 67.5581 23.6098 67.1774 23.1941V28.3867H64.5V14.107H67.1774V15.2429C67.535 14.7942 67.9929 14.4356 68.5143 14.1961C69.0357 13.9565 69.606 13.8427 70.1794 13.8636C72.938 13.7825 75.0475 16.1354 75.0475 19.1374Z" fill="#20005f85"/>
<path d="M86.6501 19.8676C86.6501 23.0318 84.3783 24.4111 81.8631 24.4111C79.3479 24.4111 77.0762 23.0318 77.0762 19.8676V14.107H79.7536V19.7053C79.7536 21.328 80.6461 21.9771 81.782 21.9771C82.9179 21.9771 83.8103 21.328 83.8103 19.7053V14.107H86.4878V19.8676H86.6501Z" fill="#20005f85"/>
<path d="M91.9234 19.1375C91.895 19.4957 91.9411 19.8559 92.0587 20.1954C92.1764 20.535 92.363 20.8465 92.6068 21.1104C92.8507 21.3743 93.1465 21.5849 93.4757 21.7289C93.8049 21.873 94.1604 21.9473 94.5197 21.9473C94.879 21.9473 95.2345 21.873 95.5636 21.7289C95.8928 21.5849 96.1887 21.3743 96.4325 21.1104C96.6764 20.8465 96.863 20.535 96.9806 20.1954C97.0982 19.8559 97.1443 19.4957 97.116 19.1375C97.1443 18.7793 97.0982 18.4191 96.9806 18.0795C96.863 17.74 96.6764 17.4285 96.4325 17.1646C96.1887 16.9007 95.8928 16.6901 95.5636 16.546C95.2345 16.402 94.879 16.3276 94.5197 16.3276C94.1604 16.3276 93.8049 16.402 93.4757 16.546C93.1465 16.6901 92.8507 16.9007 92.6068 17.1646C92.363 17.4285 92.1764 17.74 92.0587 18.0795C91.9411 18.4191 91.895 18.7793 91.9234 19.1375ZM99.9557 19.1375C99.9557 22.2206 97.8462 24.4924 95.0876 24.4924C94.5142 24.5133 93.9439 24.3995 93.4225 24.1599C92.9011 23.9204 92.4432 23.5618 92.0856 23.1131V24.2409H89.4082V9.15793H92.0856V15.1619C92.4377 14.7329 92.8852 14.3922 93.3923 14.1668C93.8994 13.9414 94.4522 13.8376 95.0065 13.8637C97.8462 13.7826 99.9557 16.1355 99.9557 19.1375Z" fill="#20005f85"/>
<path d="M102.154 24.249H104.832V9.15793H102.154V24.249Z" fill="#20005f85"/>
<path d="M107.663 24.2409H110.341V14.1072H107.663V24.2409ZM110.747 10.7726C110.747 10.9963 110.702 11.2179 110.617 11.4246C110.531 11.6313 110.406 11.8191 110.247 11.9773C110.089 12.1356 109.901 12.2611 109.695 12.3467C109.488 12.4323 109.266 12.4764 109.043 12.4764C108.819 12.4764 108.597 12.4323 108.391 12.3467C108.184 12.2611 107.996 12.1356 107.838 11.9773C107.68 11.8191 107.554 11.6313 107.469 11.4246C107.383 11.2179 107.339 10.9963 107.339 10.7726C107.339 10.5488 107.383 10.3272 107.469 10.1205C107.554 9.91381 107.68 9.72598 107.838 9.56776C107.996 9.40955 108.184 9.28405 108.391 9.19842C108.597 9.1128 108.819 9.06873 109.043 9.06873C109.266 9.06873 109.488 9.1128 109.695 9.19842C109.901 9.28405 110.089 9.40955 110.247 9.56776C110.406 9.72598 110.531 9.91381 110.617 10.1205C110.702 10.3272 110.747 10.5488 110.747 10.7726Z" fill="#20005f85"/>
<path d="M122 15.7298L120.053 17.3525C119.782 17.0329 119.447 16.7738 119.069 16.592C118.692 16.4103 118.281 16.31 117.862 16.2977C117.513 16.3068 117.17 16.3862 116.853 16.5312C116.536 16.6761 116.252 16.8836 116.017 17.1413C115.782 17.3989 115.601 17.7013 115.486 18.0304C115.371 18.3595 115.324 18.7084 115.347 19.0563C115.316 19.4057 115.359 19.7576 115.471 20.0898C115.584 20.422 115.764 20.7273 116 20.9864C116.236 21.2456 116.524 21.453 116.844 21.5956C117.165 21.7382 117.511 21.8128 117.862 21.8149C118.282 21.8117 118.697 21.7154 119.075 21.533C119.454 21.3507 119.788 21.0867 120.053 20.7601L122 22.3828C121.516 22.9886 120.897 23.4727 120.193 23.7967C119.488 24.1208 118.718 24.2756 117.943 24.2489C117.231 24.2837 116.519 24.1691 115.853 23.9123C115.188 23.6555 114.584 23.2623 114.079 22.7579C113.575 22.2535 113.182 21.6492 112.925 20.9838C112.668 20.3183 112.553 19.6065 112.588 18.894C112.56 18.1832 112.678 17.4741 112.937 16.8115C113.196 16.1489 113.59 15.5471 114.093 15.044C114.596 14.5409 115.198 14.1475 115.86 13.8885C116.523 13.6295 117.232 13.5106 117.943 13.5392C118.731 13.615 119.496 13.8479 120.193 14.2242C120.89 14.6004 121.504 15.1123 122 15.7298Z" fill="#20005f85"/>
</svg>
