<svg width="26" height="24" viewBox="0 0 26 24" fill="none" xmlns="http://www.w3.org/2000/svg">
<path d="M15.7513 4.29535C13.4229 5.30032 8.76605 7.37849 1.78682 10.5299C0.655532 10.9951 0.0599628 11.4542 0.00609215 11.9009C-0.0836922 12.6546 0.829116 12.9524 2.07113 13.3587L2.59487 13.5293C3.81594 13.9418 5.46199 14.4226 6.31494 14.4412C7.09307 14.4598 7.958 14.131 8.9127 13.4486C15.434 8.88595 18.801 6.58134 19.0105 6.53171C19.1601 6.49449 19.3696 6.45107 19.5073 6.58134C19.6479 6.70851 19.633 6.95355 19.618 7.01869C19.5282 7.41882 15.9458 10.868 14.0933 12.6546C13.5156 13.2129 13.1056 13.6068 13.0218 13.6968C12.8373 13.8922 12.6497 14.0846 12.4592 14.2737C11.3219 15.4089 10.472 16.2588 12.5041 17.6484C13.4827 18.3184 14.2668 18.8674 15.048 19.4195C15.8979 20.0213 16.7479 20.6199 17.8492 21.3705C18.1276 21.5566 18.3969 21.7582 18.6573 21.9505C19.6479 22.6826 20.5428 23.3401 21.6411 23.2347C22.2816 23.1726 22.943 22.5523 23.2782 20.6912C24.0713 16.296 25.6306 6.77675 25.9897 2.85303C26.0116 2.52686 25.9986 2.19917 25.9508 1.87598C25.9226 1.61518 25.8008 1.37492 25.6096 1.20289C25.3373 1.00807 25.0127 0.907139 24.6818 0.914432C23.784 0.92994 22.3983 1.42932 15.7513 4.29535Z" fill="white"/>
</svg>
