<svg width="109" height="28" viewBox="0 0 109 28" fill="none" xmlns="http://www.w3.org/2000/svg">
<path d="M22.4728 8.07789L21.1728 8.47941C20.0701 4.55926 18.1417 2.31785 14.7954 2.31785H10.4258C10.1482 5.97605 10.0697 9.64772 10.1881 13.3149L13.1025 13.1548C15.0723 13.1548 15.8981 11.6749 16.371 9.51433H17.4729V18.5959H16.371C15.9006 16.3962 15.0723 14.9162 13.1025 14.7963L10.1881 14.756C10.1881 17.9959 10.2274 20.7564 10.4258 22.4361C10.6231 24.836 11.2529 25.9136 12.9459 26.1561L14.52 26.3156V27.3558H0.267578V26.3205L1.44807 26.1607C3.10173 25.9217 3.77187 24.8461 3.96885 22.441C4.32321 16.8068 4.32321 11.1558 3.96885 5.52153C3.77222 3.04243 3.10242 2.04373 1.44807 1.84084L0.267578 1.64068V0.557404H22.4339L22.4728 8.07789Z" fill="#20005f85"/>
<path d="M52.9842 13.5206C50.4248 11.76 47.6692 12.5212 47.1168 13.5206C46.8927 16.9315 46.9066 20.3534 47.1574 23.7619C47.2742 25.3599 47.7084 26.0418 48.8889 26.1617L50.4637 26.3214V27.3616H38.7314V26.3214L39.6364 26.1617C40.7784 26.0418 41.1727 25.362 41.2512 23.7619C41.5659 20.0884 41.5659 16.3943 41.2512 12.7208C41.1723 10.9998 40.7815 10.3613 39.6364 10.2011L38.7314 10.0808V9.36041L47.1168 7.67969L47.0042 12.1629C48.9713 7.52224 52.8695 6.96157 54.9932 8.20216L52.9842 13.5206Z" fill="#20005f85"/>
<path d="M87.2363 15.3996C87.3537 12.7593 86.842 8.95897 84.7548 8.95897C82.6304 8.95897 81.4481 12.5196 81.4089 15.5587L87.2363 15.3996ZM85.2686 7.67807C90.504 7.67807 93.0248 11.6785 93.063 16.9195H81.2918C81.2525 21.5605 83.6146 25.0808 88.0242 25.0808C89.5549 25.127 91.0518 24.6153 92.2351 23.6412L92.7861 24.2803C90.9872 26.6201 88.1781 27.9588 85.2279 27.8813C79.4801 27.8813 75.5033 23.76 75.5033 17.9593C75.5033 12.719 78.7717 7.67773 85.2668 7.67773L85.2686 7.67807ZM68.2984 17.3982C68.1803 13.238 66.7236 9.95912 63.928 9.95912C63.253 9.9678 62.5853 10.1027 61.961 10.3588C61.961 16.9995 62.0385 24.5201 62.1952 26.3203C62.6558 26.4596 63.1335 26.5285 63.614 26.5208C66.33 26.5208 68.2984 22.5193 68.2984 17.4041V17.3982ZM74.1265 17.0835C74.1265 23.6453 70.1504 27.885 63.418 27.885C61.0404 27.8496 58.6745 27.5422 56.3681 26.9644C56.5661 24.3234 56.5661 8.00267 56.3681 4.9229C56.1722 3.32483 55.7383 2.56146 54.5578 2.402L53.7698 2.32142V1.59845L62.0764 0C62.0371 1.3601 61.9582 4.92141 61.9582 9.11774C63.3635 8.32565 64.9511 7.91084 66.5649 7.91675C70.896 7.91675 74.1244 11.7574 74.1244 17.0786L74.1265 17.0835ZM25.4631 17.7985C25.4631 22.6775 26.7225 26.6781 29.2818 26.6781C32.0381 26.6781 32.825 22.7588 32.825 17.7985C32.825 12.8372 31.6035 8.95693 29.0063 8.95693C26.25 8.95693 25.4631 12.758 25.4631 17.7985ZM38.7695 17.7193C38.7695 23.3198 35.2263 27.8803 28.8875 27.8803C22.6675 27.8803 19.5176 23.5567 19.5176 17.8798C19.5176 12.3188 23.0608 7.67705 29.3989 7.67705C35.6192 7.67705 38.7695 12.0395 38.7695 17.7193Z" fill="#20005f85"/>
<path d="M107.788 13.6398L106.803 13.9223C105.863 10.5618 104.283 9.12151 102.039 9.12151C100.612 9.06662 99.4094 10.1779 99.3548 11.6051C99.3507 11.7104 99.3528 11.8163 99.3621 11.923C99.3621 13.5617 100.661 14.4438 104.165 15.9234C107.394 17.1633 108.732 18.6825 108.732 21.3235C108.732 25.3652 105.701 27.8849 100.702 27.8849C98.4301 27.8755 96.1785 27.469 94.0475 26.6839L93.8516 21.0848L94.7913 20.8843C96.208 24.7235 98.0191 26.1638 100.381 26.1638C102.001 26.2604 103.392 25.025 103.487 23.4054C103.492 23.3259 103.493 23.2453 103.491 23.1654C103.491 21.6448 102.665 20.7634 99.4757 19.5631C96.4453 18.525 94.3577 17.163 94.3577 13.8025C94.3577 10.4823 97.154 7.68116 101.918 7.68116C103.846 7.63044 105.764 7.98482 107.547 8.72236L107.788 13.6398Z" fill="#20005f85"/>
</svg>
