<svg width="111" height="43" viewBox="0 0 111 43" fill="none" xmlns="http://www.w3.org/2000/svg">
<path fill-rule="evenodd" clip-rule="evenodd" d="M62.3299 14.894C62.2373 15.2895 62.1494 15.665 62.0756 15.9798C62.4722 16.5683 62.9492 16.7575 63.5515 16.745C64.5112 16.7251 65.473 16.7104 66.4314 16.7523C67.4607 16.7973 68.4765 16.9304 69.4649 17.2791C70.8854 17.7804 71.6465 19.3246 71.3343 20.8208C70.9613 22.6069 69.7275 23.5534 68.1526 24.1704C67.3338 24.4912 66.4825 24.6681 65.5985 24.7828C64.8625 24.8784 64.1367 24.9128 63.4037 24.9126C62.3606 24.9124 61.3323 24.7171 60.3858 24.3164C59.5129 23.9469 58.6874 23.4218 58.4016 22.3864C58.4016 21.8609 58.4016 21.3355 58.4016 20.9056C58.7103 19.933 59.405 19.3841 60.1609 18.8324C59.8236 18.4664 59.5341 18.1525 59.1447 17.73C59.0735 17.2543 58.9846 16.6584 58.9134 16.1827C59.5493 14.7211 59.686 14.5293 60.4741 13.9789C60.3408 13.8192 60.2298 13.6416 60.078 13.5114C59.1676 12.7308 58.6577 11.682 58.6402 10.5512C58.6168 9.05757 59.0798 7.64728 60.3848 6.71136C61.4472 5.94931 62.6459 5.55174 63.9675 5.56066C64.7628 5.56587 65.5565 5.52143 66.3096 5.88795C66.5117 5.98632 66.7938 5.92867 67.0395 5.92923C68.4007 5.93202 69.7622 5.93053 71.179 5.93053C71.2889 6.84246 71.1917 7.73245 71.2391 8.67655C70.5738 8.84335 69.8913 8.66037 69.1806 8.7937C69.2094 8.96255 69.202 9.11875 69.262 9.24148C70.1355 11.0239 69.0725 13.9594 66.5259 14.685C65.4447 14.9929 64.3522 15.2838 63.2117 14.9044C62.9888 14.8306 62.7208 14.894 62.3299 14.894ZM63.2802 8.4653C62.4878 8.89281 62.541 9.72571 62.3562 10.3568C62.515 11.162 62.5235 11.9736 63.4991 12.4736C63.7365 12.5192 64.1743 12.6032 64.5127 12.6681C64.9218 12.457 65.2169 12.3047 65.5221 12.1476C65.6894 11.8207 65.8544 11.4988 66.018 11.1791C66.018 10.6497 66.018 10.1272 66.018 9.62902C65.8358 9.28481 65.6662 8.96515 65.5334 8.7143C64.7749 8.15736 64.0472 8.01919 63.2802 8.4653ZM63.1121 22.3237C63.7949 22.3237 64.538 22.3343 65.2807 22.3211C66.1781 22.3051 66.9539 22.0159 67.4965 21.2769C67.4965 20.9536 67.4965 20.6484 67.4965 20.291C67.2336 20.148 66.9718 20.0058 66.7486 19.8845C65.9455 19.8845 65.2015 19.9091 64.4595 19.8776C63.704 19.8456 62.9505 19.7586 62.1559 19.6922C61.927 20.1339 61.7206 20.5316 61.5584 20.8446C61.7072 21.7482 62.3463 22.0016 63.1121 22.3237Z" fill="#20005f85"/>
<path fill-rule="evenodd" clip-rule="evenodd" d="M47.7889 10.1592C47.7889 12.9303 47.7917 15.6874 47.785 18.4444C47.7843 18.7369 47.9042 19.078 47.5308 19.2961C46.2975 19.2961 45.039 19.2961 43.7466 19.2961C43.7466 14.8456 43.7466 10.4282 43.7466 5.97049C44.8393 5.97049 45.9083 5.97049 46.9913 5.97049C47.096 6.4536 47.1974 6.92128 47.3158 7.46781C47.4884 7.35939 47.6422 7.29022 47.7619 7.18292C48.5177 6.50623 49.3297 5.93943 50.3421 5.70438C51.6103 5.40983 52.8417 5.46394 53.9682 6.1557C54.7303 6.62375 55.1676 7.40477 55.3979 8.22707C55.6498 9.12747 55.8051 10.0626 55.7992 11.0172C55.782 13.6815 55.7932 16.3459 55.7932 19.0023C55.6753 19.2758 55.4683 19.3374 55.1918 19.3341C54.1386 19.3212 53.0851 19.3288 52.049 19.3288C51.7063 19.1942 51.7137 18.9192 51.7144 18.6315C51.7195 16.7416 51.718 14.8518 51.7167 12.9619C51.7161 12.1874 51.7159 11.4129 51.7055 10.6384C51.6949 9.84507 51.448 9.19664 50.6521 8.94895C49.4205 8.77564 48.5467 9.32458 47.7889 10.1592Z" fill="#20005f85"/>
<path fill-rule="evenodd" clip-rule="evenodd" d="M110.291 19.314C108.948 19.314 107.715 19.314 106.418 19.314C106.399 19.073 106.366 18.8374 106.366 18.6016C106.362 16.5267 106.365 14.452 106.363 12.3769C106.362 11.6738 106.35 10.9778 106.216 10.276C106.1 9.67401 105.78 9.28295 105.318 8.93484C104.92 8.93484 104.518 8.93484 104.008 8.93484C103.474 9.28499 102.867 9.68313 102.285 10.0655C102.285 11.6418 102.285 13.127 102.285 14.6123C102.285 16.0966 102.285 17.5811 102.285 19.1455C102.094 19.2069 101.906 19.3177 101.716 19.3207C100.634 19.3378 99.5525 19.3289 98.5236 19.3289C98.1117 19.1137 98.2147 18.7742 98.2143 18.4787C98.2102 15.196 98.2115 11.9133 98.2115 8.6308C98.2115 7.76722 98.2115 6.90364 98.2115 5.95656C99.3139 5.89966 100.384 5.95061 101.494 5.92514C101.61 6.44804 101.718 6.93785 101.84 7.48717C102.22 7.2114 102.579 6.98881 102.894 6.71601C104.091 5.67967 105.508 5.36355 107.012 5.60064C108.316 5.80612 109.277 6.53451 109.759 7.85127C110.088 8.75 110.298 9.64463 110.293 10.6036C110.279 13.3288 110.29 16.054 110.291 18.7792C110.291 18.9313 110.291 19.083 110.291 19.314Z" fill="#20005f85"/>
<path fill-rule="evenodd" clip-rule="evenodd" d="M95.6072 12.5052C95.5964 14.1446 95.2698 15.5076 94.4704 16.6896C93.4214 18.2408 91.9859 19.2208 90.0783 19.5615C89.0708 19.7415 88.149 19.6364 87.2284 19.3383C84.6648 18.5084 83.2379 16.7048 82.7317 14.0791C82.5958 13.3729 82.5331 12.6757 82.5925 11.9815C82.8046 9.50031 83.7939 7.43527 86.0961 6.2576C89.2648 4.63662 93.3106 5.73098 94.9063 9.25671C95.3394 10.2138 95.6622 11.4631 95.6072 12.5052ZM88.4426 8.76095C88.2056 8.92719 87.9396 9.08247 87.7098 9.27977C86.8994 9.97543 86.7623 10.9567 86.6859 11.9274C86.6285 12.6541 86.6816 13.381 86.825 14.1165C87.0372 15.2045 87.5714 15.9519 88.5215 16.3576C88.9646 16.3576 89.3356 16.3576 89.6843 16.3576C90.6189 15.8978 91.134 15.185 91.3393 14.1717C91.5686 13.0394 91.5766 11.9349 91.3183 10.8143C90.9917 9.39822 90.1681 8.72655 88.7413 8.74626C88.6796 8.74719 88.6176 8.75221 88.4426 8.76095Z" fill="#20005f85"/>
<path fill-rule="evenodd" clip-rule="evenodd" d="M11.3451 19.3105C10.2604 19.3105 9.27335 19.3105 8.21581 19.3105C8.11782 18.903 8.02037 18.4973 7.90731 18.0272C7.78495 18.0891 7.66315 18.1425 7.54916 18.2096C6.92044 18.5802 6.32259 19.0185 5.66115 19.3149C3.65821 20.2129 0.969282 19.2991 0.317505 17.1736C0.255581 16.9719 0.131362 16.7891 0.00695746 16.5388C0.00695746 16.2602 0.0201604 15.919 0.00472598 15.5787C-0.084719 13.6221 1.108 12.4232 2.51867 11.7735C3.72999 11.2156 5.0235 10.8902 6.36332 10.7697C6.71663 10.7379 7.06158 10.6125 7.44893 10.5212C7.37287 9.68275 7.01602 9.07152 6.19354 8.76934C4.68487 8.55251 3.31791 8.97705 2.07498 9.8464C1.4987 9.37276 0.790949 8.1276 0.573195 7.20172C2.62708 5.93071 4.86042 5.30683 7.27078 5.60324C8.7854 5.78939 10.0168 6.5215 10.7205 7.98627C11.1238 8.82624 11.3566 9.69056 11.36 10.6148C11.3698 13.3418 11.3693 16.0691 11.3711 18.7961C11.3713 18.9465 11.3564 19.0974 11.3451 19.3105ZM7.43461 12.9818C6.73356 13.1789 6.13143 13.3641 5.52094 13.5161C4.57702 13.7509 3.9589 14.2965 3.76532 15.2382C3.86369 15.9385 4.21552 16.3852 4.89538 16.5365C5.205 16.5365 5.51461 16.5365 5.81066 16.5365C6.12064 16.3744 6.43882 16.2496 6.70771 16.056C6.98088 15.8593 7.20551 15.595 7.43443 15.3766C7.43461 14.5963 7.43461 13.8575 7.43461 12.9818Z" fill="#20005f85"/>
<path fill-rule="evenodd" clip-rule="evenodd" d="M74.1615 5.98091C74.3351 4.73035 74.4895 3.61908 74.6576 2.40924C75.693 2.38712 76.7626 2.40274 77.9105 2.4005C77.9732 3.52405 77.9116 4.62715 77.9486 5.72299C78.4448 6.11591 78.9887 5.88495 79.49 5.924C80.0055 5.96399 80.5269 5.93293 81.0748 5.93293C81.0748 6.95457 81.0748 7.90184 81.0748 8.90935C80.052 8.90935 79.0421 8.90935 77.938 8.90935C77.938 9.20427 77.938 9.44044 77.938 9.67679C77.9382 11.1936 77.9263 12.7105 77.9466 14.227C77.9516 14.6156 78.0403 15.0067 78.1206 15.3903C78.314 16.3169 79.3336 16.6847 80.1258 16.483C80.4096 16.4108 80.7045 16.3824 81.0052 16.3322C81.1873 17.301 81.3528 18.1843 81.5337 19.1485C81.1452 19.2584 80.8378 19.3618 80.523 19.4313C79.3584 19.6885 78.187 19.7668 77.0235 19.4423C75.4669 19.0083 74.5782 17.9438 74.1999 16.4017C74.0603 15.8325 74.006 15.2627 74.0101 14.6773C74.0227 12.793 74.0147 10.9086 74.0147 8.96011C73.4024 8.96011 72.8257 8.96011 72.2056 8.96011C72.2056 7.95093 72.2056 7.00441 72.2056 5.98091C72.8317 5.98091 73.469 5.98091 74.1615 5.98091Z" fill="#20005f85"/>
<path fill-rule="evenodd" clip-rule="evenodd" d="M34.5508 5.93259C34.3166 7.07883 34.095 8.16388 33.8713 9.25972C31.7168 8.4722 30.3807 9.5844 29.5668 11.3376C29.5668 13.6793 29.5699 16.0626 29.5627 18.4456C29.5619 18.7377 29.6824 19.0788 29.3231 19.2865C28.1338 19.2865 26.9342 19.2895 25.7348 19.2787C25.6659 19.2781 25.5983 19.1649 25.5151 19.0909C25.5151 14.7402 25.5151 10.3838 25.5151 5.97889C26.6045 5.97889 27.6726 5.97889 28.7709 5.97889C28.8677 6.62677 28.9657 7.28133 29.0816 8.05584C29.3399 7.75868 29.5734 7.53851 29.749 7.27891C30.3039 6.45866 31.0631 5.90693 32.0074 5.6782C32.8673 5.46975 33.7523 5.40726 34.5508 5.93259Z" fill="#20005f85"/>
<path fill-rule="evenodd" clip-rule="evenodd" d="M18.7911 19.3145C17.4562 19.3145 16.2218 19.3145 14.9904 19.3145C14.8165 18.5091 14.7576 10.3094 14.8937 5.99242C15.3924 5.86578 15.9142 5.94965 16.4273 5.93421C16.9225 5.91915 17.4184 5.93087 17.9136 5.93087C18.4367 6.53578 18.1371 7.29225 18.3015 8.02808C18.4412 7.96225 18.57 7.94347 18.6256 7.86946C19.6441 6.51421 19.8522 6.33607 21.3616 5.58648C22.1417 5.61493 22.9818 5.38955 23.8216 5.84998C23.6589 6.94098 23.4953 8.03347 23.1862 9.14531C22.2655 9.06386 21.3787 8.85131 20.5114 9.33889C19.6473 9.82461 19.2028 10.5937 18.7911 11.5988C18.7911 14.0393 18.7911 16.6377 18.7911 19.3145Z" fill="#20005f85"/>
<path fill-rule="evenodd" clip-rule="evenodd" d="M36.2781 5.96381C37.5986 5.96381 38.8555 5.96381 40.1488 5.96381C40.1488 10.4117 40.1488 14.8269 40.1488 19.2855C38.8812 19.2855 37.6245 19.2855 36.3655 19.2855C36.204 18.4768 36.1493 10.5766 36.2781 5.96381Z" fill="#20005f85"/>
<path fill-rule="evenodd" clip-rule="evenodd" d="M10.4385 39.5817C10.4385 35.804 10.4385 32.094 10.4385 28.2923C10.5876 28.2341 10.7717 28.103 10.9582 28.0993C11.9789 28.0788 13.001 28.0649 14.0207 28.0995C14.594 28.1188 15.1859 28.1623 15.7308 28.3249C16.7431 28.6267 17.6936 29.0638 18.0101 30.225C18.0575 30.6142 18.1049 31.0034 18.1715 31.5505C18.0885 31.9127 17.9677 32.4404 17.846 32.9713C17.2666 33.7407 16.5616 34.3552 15.5608 34.6598C16.5272 36.3241 17.4554 37.9224 18.4123 39.5704C17.8829 39.6833 17.3655 39.586 16.825 39.6414C15.7485 38.0868 15.0152 36.3349 13.9731 34.8101C13.2579 34.8101 12.6186 34.8101 11.9233 34.8101C11.9233 36.4065 11.9233 37.9726 11.9233 39.5819C11.4183 39.5817 10.9681 39.5817 10.4385 39.5817ZM11.9157 29.3854C11.9157 30.1614 11.9133 30.8397 11.9163 31.5179C11.9194 32.2182 11.9016 32.9195 11.9285 33.6438C12.9366 33.6079 13.8459 33.6784 14.764 33.492C15.8801 33.2653 16.3281 32.9033 16.578 31.7723C16.6096 31.6289 16.6851 31.4956 16.7022 31.4526C16.6418 31.1789 16.5942 31.0049 16.5659 30.8273C16.4703 30.2257 16.1163 29.8235 15.5621 29.6297C15.1958 29.5018 14.8001 29.4133 14.4137 29.3963C13.6139 29.361 12.8117 29.3854 11.9157 29.3854Z" fill="#20005f85"/>
<path fill-rule="evenodd" clip-rule="evenodd" d="M101.156 39.5886C100.624 39.5886 100.136 39.5886 99.5744 39.5886C99.2358 38.5128 98.8858 37.4014 98.5318 36.2762C97.1378 36.2762 95.7813 36.2762 94.3728 36.2762C94.063 36.5425 94.0413 36.9819 93.9189 37.38C93.6904 38.1231 93.4479 38.8619 93.2132 39.5959C92.6713 39.5959 92.2174 39.5959 91.7068 39.5959C93.0007 35.7427 94.2799 31.9332 95.5615 28.116C96.1493 28.116 96.6657 28.116 97.255 28.116C98.5463 31.9144 99.8429 35.7278 101.156 39.5886ZM96.4675 29.5955C96.4211 29.602 96.375 29.6081 96.3287 29.6148C95.7971 31.381 95.2652 33.1474 94.7327 34.9166C95.8373 34.9166 96.9082 34.9166 98.0819 34.9166C97.5298 33.0971 96.9985 31.3465 96.4675 29.5955Z" fill="#20005f85"/>
<path fill-rule="evenodd" clip-rule="evenodd" d="M68.2147 39.5882C67.6908 39.5882 67.1784 39.5882 66.6534 39.5882C66.3014 38.4795 65.9568 37.3924 65.6042 36.2817C64.2293 36.2817 62.8746 36.2817 61.4574 36.2817C61.1357 36.5303 61.134 36.9787 61.0092 37.3718C60.7738 38.1132 60.5345 38.8533 60.2963 39.5958C59.7632 39.5958 59.3092 39.5958 58.7815 39.5958C60.1312 35.7346 61.3209 31.8658 62.7346 28.09C63.2638 28.09 63.7274 28.09 64.2705 28.09C64.5352 28.7544 64.8437 29.4342 65.08 30.1386C66.1318 33.2718 67.1631 36.4121 68.2147 39.5882ZM63.5306 29.4906C63.3878 29.7044 63.28 29.797 63.2612 29.9051C63.0094 31.3606 62.4513 32.7288 62.0634 34.1451C61.9902 34.4121 61.8948 34.673 61.7983 34.9711C62.949 34.9306 64.0182 35.0068 65.1836 34.9203C64.627 33.0924 64.0959 31.3477 63.5306 29.4906Z" fill="#20005f85"/>
<path fill-rule="evenodd" clip-rule="evenodd" d="M69.8899 28.0861C71.2313 28.0861 72.4394 28.0266 73.6385 28.1056C74.5324 28.1648 75.4272 28.3148 76.2205 28.847C76.9053 29.3067 77.2365 29.9343 77.3788 30.7045C77.4281 30.9708 77.4712 31.2382 77.5309 31.586C77.431 32.0008 77.3241 32.5018 77.1882 32.9948C77.008 33.6492 76.5624 34.0782 75.9934 34.4302C75.1895 34.9271 74.312 35.1058 73.393 35.1374C72.7754 35.1584 72.1566 35.1413 71.5606 35.1413C71.2729 35.2789 71.2456 35.5082 71.248 35.7722C71.2573 36.7619 71.2519 37.7517 71.2519 38.7414C71.2519 39.0134 71.2519 39.2857 71.2519 39.5905C70.7368 39.5905 70.2866 39.5905 69.7561 39.5905C69.7561 38.9277 69.7561 38.2864 69.7561 37.6454C69.7561 37.0267 69.7561 36.4082 69.7561 35.7897C69.7561 35.1403 69.7561 34.4908 69.7561 33.8413C69.7561 33.1917 69.7561 32.5424 69.7561 31.8926C69.7561 31.2741 69.736 30.6547 69.7616 30.0371C69.7882 29.4086 69.637 28.7587 69.8899 28.0861ZM71.2653 33.8658C72.5255 33.7667 73.73 34.0499 75.0244 33.5411C75.2819 33.2151 75.6168 32.7908 75.8818 32.455C75.8818 31.7539 75.8818 31.1983 75.8818 30.6798C75.604 30.0543 75.2169 29.6686 74.5292 29.5358C73.816 29.398 72.1517 29.2985 71.2653 29.4908C71.2653 30.9063 71.2653 32.3235 71.2653 33.8658Z" fill="#20005f85"/>
<path fill-rule="evenodd" clip-rule="evenodd" d="M21.9401 35.1432C21.9401 36.6784 21.9401 38.0975 21.9401 39.5712C21.4703 39.5712 21.0201 39.5712 20.5627 39.5712C20.4301 38.9516 20.3927 29.357 20.5322 28.0898C21.3497 28.0898 22.1781 28.0642 23.0041 28.0971C23.8262 28.1298 24.6461 28.2213 25.5322 28.2922C25.7204 28.3825 25.9558 28.5352 26.2139 28.6128C27.001 28.8491 27.5024 29.3527 27.815 30.1082C28.2369 31.1273 28.2038 32.1545 27.7685 33.1155C27.3209 34.1031 26.4783 34.6954 25.4048 34.9656C24.8019 35.1171 24.2009 35.1489 23.5891 35.1443C23.0688 35.1402 22.5483 35.1432 21.9401 35.1432ZM21.9927 29.3871C21.9927 30.9251 21.9927 32.3681 21.9927 33.8521C22.5286 33.8521 23.0203 33.8521 23.5121 33.8521C24.007 33.8521 24.5018 33.8521 24.9228 33.8521C26.3844 33.1164 26.6317 32.6692 26.5693 30.972C26.4688 30.7832 26.3444 30.603 26.2734 30.4037C26.1373 30.0212 25.8548 29.794 25.4976 29.6794C25.0976 29.5513 24.6824 29.4248 24.2675 29.3997C23.5296 29.3551 22.7873 29.3871 21.9927 29.3871Z" fill="#20005f85"/>
<path fill-rule="evenodd" clip-rule="evenodd" d="M4.22729 34.7648C3.3479 36.419 2.49808 38.0171 1.65328 39.6061C1.10639 39.6061 0.616391 39.6061 0.0512695 39.6061C1.17519 37.6324 2.27289 35.705 3.3784 33.7636C2.86628 32.8299 2.39246 31.8802 1.8385 30.9798C1.28621 30.0822 0.846791 29.1346 0.224767 28.1349C0.863341 28.1349 1.31559 28.1349 1.86527 28.1349C2.6634 29.6199 3.49406 31.1656 4.37196 32.799C5.28148 31.2048 5.95873 29.5862 6.85392 28.115C7.33388 28.115 7.72643 28.115 8.20136 28.115C8.1625 28.3147 8.16882 28.4971 8.09351 28.6351C7.41105 29.8879 6.71613 31.134 6.02065 32.3797C5.75474 32.8561 5.47822 33.3264 5.19278 33.8229C6.26351 35.728 7.40677 37.579 8.47026 39.581C7.90458 39.581 7.45122 39.581 6.87252 39.581C6.02437 38.0368 5.13625 36.4198 4.22729 34.7648Z" fill="#20005f85"/>
<path fill-rule="evenodd" clip-rule="evenodd" d="M57.8893 29.3571C57.6485 29.6926 57.4375 29.9864 57.2279 30.2784C56.6168 29.9126 56.1055 29.4826 55.3713 29.3238C54.3415 29.1013 53.5062 29.391 52.7374 29.9488C51.9125 30.5476 51.5188 31.4339 51.3225 32.4321C51.2092 33.0082 51.1006 33.5824 51.1676 34.1594C51.2513 34.8791 51.2987 35.6352 51.5625 36.2948C52.0499 37.513 52.8646 38.442 54.3231 38.5123C54.4075 38.5164 54.4867 38.5915 54.5722 38.6237C54.6279 38.6445 54.6905 38.6471 54.75 38.6581C56.3766 38.1986 56.5722 38.1058 57.46 37.3575C57.6898 37.6247 57.9221 37.8948 58.1846 38.1997C57.4845 39.1446 56.5425 39.599 55.3849 39.8406C54.4274 40.0403 53.5779 39.7699 52.7298 39.5349C51.9588 39.3212 51.3439 38.7316 50.8665 38.0841C50.0924 37.0341 49.6619 35.8448 49.6576 34.5228C49.6541 33.4526 49.6284 32.3919 50.0202 31.353C50.5805 29.8668 51.5302 28.7424 53.0108 28.2025C54.5702 27.6339 56.5544 27.6848 57.8893 29.3571Z" fill="#20005f85"/>
<path fill-rule="evenodd" clip-rule="evenodd" d="M88.341 39.5988C87.8183 39.5988 87.3894 39.5988 86.8911 39.5988C86.8743 39.3824 86.8407 39.1483 86.8403 38.9143C86.8366 36.035 86.8411 33.1555 86.8334 30.2761C86.8327 29.9849 86.9606 29.6426 86.5216 29.3813C85.5418 29.3813 84.4675 29.3813 83.354 29.3813C83.354 28.9424 83.354 28.5538 83.354 28.0837C84.7513 28.0837 86.1354 28.0837 87.5194 28.0837C88.8795 28.0837 90.2394 28.0837 91.6023 28.0837C92.014 28.4982 91.9359 28.906 91.6562 29.3716C90.5797 29.3716 89.5043 29.3716 88.4825 29.3716C88.4075 29.4417 88.3789 29.4596 88.3637 29.4849C88.349 29.5094 88.3421 29.5419 88.3421 29.571C88.341 32.8819 88.341 36.1929 88.341 39.5988Z" fill="#20005f85"/>
<path fill-rule="evenodd" clip-rule="evenodd" d="M102.807 28.0984C103.316 28.0984 103.684 28.0984 104.114 28.0984C104.131 28.3444 104.162 28.5809 104.162 28.8173C104.165 31.7301 104.16 34.6429 104.169 37.5555C104.17 37.8473 104.04 38.185 104.434 38.4725C105.988 38.4725 107.622 38.4725 109.315 38.4725C109.325 38.7034 109.336 38.8803 109.34 39.0573C109.344 39.2091 109.341 39.3614 109.341 39.5064C108.639 39.6533 104.19 39.6959 102.672 39.568C102.672 38.9378 102.672 38.2964 102.672 37.655C102.672 37.0354 102.673 36.4156 102.673 35.7958C102.673 35.1452 102.672 34.4945 102.672 33.8437C102.672 33.1932 102.672 32.5423 102.672 31.8917C102.672 31.2719 102.65 30.6512 102.678 30.0327C102.706 29.4034 102.544 28.7514 102.807 28.0984Z" fill="#20005f85"/>
<path fill-rule="evenodd" clip-rule="evenodd" d="M79.8301 28.1054C80.3082 28.1054 80.7357 28.1054 81.1643 28.1054C81.3129 28.7749 81.3598 38.0061 81.2182 39.5882C80.7727 39.5882 80.3229 39.5882 79.8301 39.5882C79.8301 35.78 79.8301 31.9872 79.8301 28.1054Z" fill="#20005f85"/>
<path fill-rule="evenodd" clip-rule="evenodd" d="M37.3272 0C37.81 0 38.3976 0 39.0467 0C39.1868 0.0648988 39.4032 0.121058 39.5624 0.24881C39.8259 0.4608 40.0524 0.718721 40.2813 0.944472C40.3656 1.28421 40.4448 1.6035 40.5387 1.98229C40.362 2.53142 40.2045 3.14006 39.6755 3.57966C39.2493 3.93409 38.6968 4.04771 38.2386 4.04288C37.1604 4.03116 36.1866 3.68194 35.9058 2.23408C35.9058 2.05649 35.9058 1.68551 35.9058 1.30802C36.2275 0.797195 36.4772 0.218871 37.3272 0Z" fill="#20005f85"/>
<path fill-rule="evenodd" clip-rule="evenodd" d="M41.8435 35.1372C41.8435 35.29 41.8435 35.4431 41.8435 35.651C42.627 35.7566 43.4398 35.7308 44.0983 36.2025C44.3281 36.3673 44.6236 36.5432 44.6282 37.0053C43.7606 36.6869 42.9148 36.4233 41.9789 36.4463C41.5707 35.2404 40.5385 34.8579 39.4306 34.5866C39.1399 34.5153 38.8457 34.4358 38.5495 34.4155C37.5931 34.3506 36.6898 34.6102 35.8265 34.978C35.1279 35.2759 34.6379 35.8167 34.3571 36.5921C33.9525 36.5921 33.5272 36.5921 33.2105 36.5921C32.8328 36.7712 32.5634 36.8989 32.2288 37.0577C32.2078 36.8552 32.193 36.7128 32.1714 36.5038C32.5074 36.3156 32.8473 36.1255 33.2427 35.9041C33.6577 35.8546 34.1779 35.9803 34.5862 35.5844C34.5862 35.4797 34.5862 35.3607 34.5862 35.2573C34.3084 34.9793 33.2858 35.2041 32.6082 35.6869C32.4202 35.1586 32.7878 34.9579 33.1317 34.7727C33.6464 34.4954 34.1978 34.3461 34.7911 34.4066L34.7794 34.3952C34.7889 34.5723 34.7982 34.7493 34.8157 35.0794C35.3765 34.277 36.0832 33.911 36.8588 33.7565C37.4797 33.6326 38.1352 33.6637 38.7754 33.6616C39.4157 33.6598 40.037 33.8158 40.5759 34.1572C41.032 34.4462 41.4348 34.8192 41.8612 35.1548L41.8435 35.1372Z" fill="#20005f85"/>
<path fill-rule="evenodd" clip-rule="evenodd" d="M38.2819 35.1917C38.493 35.2302 38.7561 35.3064 39.0228 35.3224C40.4658 35.4081 41.4793 36.0588 42.142 37.3679C43.1579 37.369 44.2225 37.2978 44.9964 38.2211C44.9964 38.4009 44.9964 38.5815 44.9964 38.8522C44.1818 38.2189 43.2858 38.0833 42.3188 38.1285C41.9155 37.6186 41.5853 37.0313 40.9454 36.7149C40.293 36.3926 39.6534 36.0746 38.9067 36.0685C38.752 36.0672 38.5964 36.0763 38.4428 36.0625C37.1852 35.9476 36.022 36.2077 34.9239 36.9908C34.7019 37.2904 34.4321 37.6543 34.0946 38.1099C33.789 38.1633 33.3682 38.2014 32.9695 38.3165C32.5814 38.4288 32.216 38.6194 31.8315 38.7795C31.7999 38.7509 31.7541 38.7096 31.7087 38.6679C32.1017 37.6722 32.5991 37.4193 34.2861 37.3627C35.0165 35.5891 36.618 35.3616 38.2819 35.1917Z" fill="#20005f85"/>
<path fill-rule="evenodd" clip-rule="evenodd" d="M35.1617 32.7315C35.0797 32.6095 34.9977 32.4873 34.8725 32.3012C34.3686 32.4494 33.8754 32.5944 33.2595 32.7756C33.7692 31.9754 34.4113 31.7755 35.1639 31.8045L35.1501 31.7911C35.1818 31.9191 35.2136 32.0472 35.2697 32.2733C35.6253 31.9533 35.8947 31.7106 36.0967 31.5287C37.9789 30.7254 39.6627 30.9259 41.2609 32.2355C41.2767 32.0299 41.2858 31.9138 41.2947 31.7976L41.2938 31.7985C41.751 31.7952 42.1942 31.7961 42.6472 31.96C43.0036 32.089 43.1928 32.2936 43.3962 32.6432C42.9629 32.7735 42.7427 32.4405 42.4253 32.381C42.0843 32.381 41.7185 32.381 41.3297 32.381C41.3979 32.5476 41.4518 32.6798 41.532 32.876C42.2494 32.9003 42.9917 33.0084 43.6656 33.4997C43.6798 33.6477 43.6956 33.8151 43.7125 33.9939C43.0373 33.8433 42.4294 33.7079 41.6476 33.5337C41.7267 33.601 41.6171 33.5545 41.5939 33.4809C41.3289 32.6404 40.6716 32.2512 39.9095 31.9579C39.4158 31.7681 38.1846 31.621 37.7091 31.734C37.6215 31.7548 37.5313 31.7848 37.4434 31.7816C36.5986 31.7493 35.9202 32.1119 35.3166 32.6616C35.2766 32.698 35.2083 32.7038 35.1533 32.7237L35.1617 32.7315Z" fill="#20005f85"/>
<path fill-rule="evenodd" clip-rule="evenodd" d="M34.9657 33.6629C36.18 32.3755 37.6654 32.1714 39.3303 32.4867C40.3582 32.6814 41.1233 33.1573 41.6233 34.0722C41.6802 34.1765 41.7899 34.2516 41.8805 34.3459C42.7641 34.491 43.785 34.3602 44.2892 35.5818C43.4498 35.1706 42.6576 35.0719 41.8433 35.1372L41.8613 35.1552C41.7401 34.4315 41.2659 33.9922 40.6671 33.6387C40.0246 33.2598 39.3481 33.0284 38.5943 33.0876C37.9884 33.1352 37.3874 33.0387 36.7708 33.2032C35.9739 33.4161 35.39 33.9112 34.7795 34.3956L34.7913 34.4069C34.8532 34.1551 34.9153 33.9035 34.9772 33.6516L34.9657 33.6629Z" fill="#20005f85"/>
<path fill-rule="evenodd" clip-rule="evenodd" d="M39.5918 41.8867C40.5993 41.4529 41.5058 40.8918 42.6054 40.9145C43.2429 40.9275 43.8712 40.9022 44.5167 41.0551C44.97 41.1626 45.2395 41.4841 45.6415 41.5985C45.7503 41.8367 45.849 42.0528 45.9588 42.2925C45.8479 42.3371 45.7702 42.3722 45.6899 42.399C45.6629 42.4079 45.6224 42.4074 45.5991 42.3932C44.6682 41.8222 43.6417 41.8012 42.5935 41.8309C42.0678 41.8456 41.5862 42.0089 41.093 42.1357C40.5755 42.2686 40.0978 42.2625 39.5918 41.8867Z" fill="#20005f85"/>
<path fill-rule="evenodd" clip-rule="evenodd" d="M37.0512 41.9177C36.4875 42.3942 35.9142 42.2162 35.3577 42.1253C34.856 42.0434 34.3619 41.8947 33.8579 41.8519C32.952 41.7753 32.1099 41.8833 30.9351 42.5686C30.9098 42.3553 30.8873 42.1673 30.8665 41.9929C31.4392 41.2178 32.2846 41.032 33.116 40.9353C34.0552 40.826 34.985 40.9489 35.8402 41.4471C36.1924 41.6524 36.6075 41.7498 37.0512 41.9177Z" fill="#20005f85"/>
<path fill-rule="evenodd" clip-rule="evenodd" d="M41.1146 30.6754C40.7804 30.423 40.4626 30.1441 40.1087 29.923C38.6385 29.0044 36.6788 29.3482 35.6132 30.4628C35.0262 30.249 35.0262 30.249 34.2944 30.4846C34.2595 30.2579 34.4545 30.1837 34.5572 30.0673C34.658 29.9529 34.7865 29.8631 34.9038 29.7618C35.1881 29.7618 35.4654 29.7618 35.7304 29.7618C37.2147 28.5264 39.5105 28.5819 40.8457 29.8977C41.6494 29.6197 41.9147 29.7021 42.6173 30.5095C42.0914 30.3551 41.6488 30.2252 41.1014 30.0641C41.1014 30.3401 41.1014 30.5141 41.1014 30.688L41.1146 30.6754Z" fill="#20005f85"/>
<path fill-rule="evenodd" clip-rule="evenodd" d="M35.1638 31.8043C35.1999 31.6349 35.2361 31.4653 35.2758 31.2808C34.7802 31.1133 34.3517 31.3344 33.8725 31.597C33.8365 31.1918 34.1176 31.014 34.3646 30.8918C34.6253 30.7627 34.9386 30.7401 35.2406 30.6683C35.3055 30.7981 35.3578 30.9031 35.4212 31.0302C36.279 30.2874 37.2902 29.9183 38.4063 29.9635C39.4211 30.0042 40.3235 30.4208 41.1153 31.0616L41.0999 31.0447C41.1642 31.2959 41.2286 31.5469 41.2931 31.7982L41.294 31.7972C41.1972 31.7323 41.075 31.6871 41.0073 31.5996C40.2447 30.6123 39.0838 30.6889 38.0389 30.5547C37.5375 30.4903 36.9936 30.7533 36.4698 30.8712C35.9054 30.9982 35.6358 31.5501 35.1497 31.7907L35.1638 31.8043Z" fill="#20005f85"/>
<path fill-rule="evenodd" clip-rule="evenodd" d="M36.6548 27.5115C36.3959 27.5764 36.1385 27.6476 35.8775 27.7016C35.7949 27.7187 35.7028 27.6891 35.4148 27.6621C35.8537 27.4739 36.1229 27.3585 36.4348 27.2248C36.2615 27.1744 36.1101 27.1303 36.0165 27.1031C36.1785 26.8941 36.3732 26.6909 36.5121 26.4551C36.9978 25.6298 37.902 25.2259 38.8133 25.5361C39.3297 25.7118 39.9884 25.7604 40.1128 26.5345C40.0894 26.5801 40.0366 26.6825 39.9837 26.785L40.0005 26.7688C39.5034 26.5886 39.0184 26.3485 38.5058 26.2444C37.9737 26.1364 37.4547 26.3528 36.9616 26.5618C36.8993 26.5884 36.8753 26.705 36.8336 26.7796C36.7786 26.809 36.7237 26.8383 36.8206 26.7866C36.7661 26.8815 36.797 26.8277 36.8279 26.774C37.1806 26.7136 37.5334 26.6516 37.8865 26.5927C38.6359 26.4681 39.3085 26.7738 40.0005 26.9717L39.9837 26.9548C40.0654 27.2177 40.2398 27.3484 40.5193 27.3332C40.7677 27.3198 40.9812 27.3694 41.0861 27.6993C40.7649 27.6993 40.4676 27.6993 40.1701 27.6993L40.1866 27.7149C39.9759 27.1922 39.3885 27.2569 39.0999 26.9598C38.6322 26.9598 38.2304 26.9114 37.8458 26.9724C37.403 27.0423 36.8695 26.9841 36.6341 27.5303L36.6548 27.5115ZM39.6267 26.2113C39.6559 26.2639 39.6851 26.3166 39.644 26.2424C39.7202 26.281 39.6663 26.2537 39.6124 26.2264C39.5901 25.9651 39.3915 26.0508 39.2427 26.0387C38.3406 25.4855 37.5793 25.5417 37.1429 26.1616C37.4644 26.1187 37.8105 26.0536 38.159 26.0315C38.5223 26.0084 38.8883 26.027 39.2531 26.0272C39.2801 26.2864 39.477 26.2009 39.6267 26.2113Z" fill="#20005f85"/>
<path fill-rule="evenodd" clip-rule="evenodd" d="M40.5764 28.8513C40.6982 28.7622 40.7728 28.7077 40.8514 28.6501C41.2605 28.8095 41.7622 28.8009 42.0291 29.3432C41.5605 29.3781 41.1012 28.9486 40.6461 29.3698C39.7413 28.4121 38.5789 28.3541 37.2658 28.4919C36.8325 28.7275 36.3046 29.0146 35.7508 29.3158C35.5011 28.9158 35.1429 29.4421 34.7493 29.3406C35.0063 28.7513 35.471 28.8234 35.9039 28.8243C37.1338 27.8122 39.2533 27.7646 40.5764 28.8513Z" fill="#20005f85"/>
<path fill-rule="evenodd" clip-rule="evenodd" d="M44.9094 39.3841C45.0716 39.597 45.3204 39.9237 45.5764 40.2601C45.4396 40.3843 45.3518 40.4641 45.2242 40.58C44.3846 39.751 43.3037 40.0353 42.2275 39.9464C42.3118 39.6388 42.385 39.3712 42.4747 39.0445C43.2222 39.0613 43.9776 38.9341 44.9094 39.3841Z" fill="#20005f85"/>
<path fill-rule="evenodd" clip-rule="evenodd" d="M31.2444 40.1192C31.9413 39.1753 32.8974 38.9783 33.9813 39.0659C34.0414 39.3753 34.0951 39.6533 34.1485 39.9291C33.6724 39.9808 33.1878 39.9944 32.7224 40.0952C32.2634 40.1945 31.8236 40.3819 31.3223 40.5484C31.2942 40.3942 31.2691 40.2555 31.2444 40.1192Z" fill="#20005f85"/>
<path fill-rule="evenodd" clip-rule="evenodd" d="M36.2789 28.0846C36.4042 27.8936 36.5295 27.7025 36.6547 27.5115C36.6547 27.5115 36.6342 27.5304 36.6342 27.5303C37.1889 27.4083 37.7438 27.2861 38.3326 27.1567C38.93 27.3365 39.5582 27.5256 40.1865 27.7149L40.17 27.6993C40.2879 27.8014 40.4099 27.9946 40.5229 27.9898C40.9493 27.971 41.2796 28.1595 41.7765 28.453C41.2448 28.4201 40.8856 28.3978 40.4147 28.3687C39.9872 27.7525 39.1573 27.6958 38.417 27.5645C37.9566 27.483 37.4338 27.7352 36.9427 27.8527C36.7133 27.9078 36.4922 27.9983 36.2673 28.0729L36.2789 28.0846Z" fill="#20005f85"/>
<path fill-rule="evenodd" clip-rule="evenodd" d="M34.977 33.6516C34.3129 33.7714 33.6487 33.8908 32.9434 34.018C32.9497 33.5873 33.2087 33.413 33.4793 33.2959C33.8337 33.1427 34.2125 33.046 34.5807 32.9247C34.7745 32.8607 34.9679 32.7958 35.1614 32.7315L35.1529 32.7235C35.0904 33.0367 35.0279 33.3498 34.9654 33.6631L34.977 33.6516Z" fill="#20005f85"/>
<path fill-rule="evenodd" clip-rule="evenodd" d="M41.1154 31.0616C41.1152 30.9329 41.1148 30.8041 41.1145 30.6754L41.1015 30.6884C41.5333 30.6425 41.9442 30.7181 42.3535 30.8617C42.6689 30.9723 42.8619 31.1696 43.0233 31.588C42.6986 31.4517 42.4729 31.3567 42.1938 31.2396C41.8654 31.2018 41.4486 31.3199 41.1003 31.0447L41.1154 31.0616Z" fill="#20005f85"/>
<path fill-rule="evenodd" clip-rule="evenodd" d="M36.2676 28.0727C36.1513 28.1964 36.0559 28.3803 35.9137 28.4297C35.6811 28.511 35.4177 28.5045 35.0784 28.546C35.2258 28.355 35.3298 28.2203 35.4345 28.0848C35.7307 28.0848 36.0048 28.0848 36.2791 28.0848L36.2676 28.0727Z" fill="#20005f85"/>
<path fill-rule="evenodd" clip-rule="evenodd" d="M38.4708 25.0615C38.3143 25.0615 38.1577 25.0615 38.0011 25.0615C38.0007 25.0331 38.0004 25.0043 38 24.9756C38.1569 24.9756 38.3139 24.9756 38.4708 24.9756C38.4708 25.0044 38.4708 25.0331 38.4708 25.0615Z" fill="#20005f85"/>
<path fill-rule="evenodd" clip-rule="evenodd" d="M39.9841 26.785C40.1757 26.8305 40.4483 26.6308 40.5429 26.9696L40.5567 26.9555C40.3659 26.9551 40.1749 26.9549 39.9841 26.9548L40.0009 26.9717C40.0009 26.904 40.0009 26.8363 40.0009 26.7688L39.9841 26.785Z" fill="#20005f85"/>
<path fill-rule="evenodd" clip-rule="evenodd" d="M37.7201 25.187C37.7108 25.2045 37.7015 25.2222 37.6922 25.2397C37.666 25.2204 37.6398 25.2008 37.6135 25.1815C37.6323 25.1636 37.6509 25.1463 37.6697 25.1286C37.6866 25.1482 37.7034 25.1675 37.7201 25.187Z" fill="#20005f85"/>
<path fill-rule="evenodd" clip-rule="evenodd" d="M40.5427 26.9697C40.5962 26.9983 40.6499 27.027 40.5722 26.9855C40.6129 27.0634 40.5848 27.0094 40.5566 26.9555L40.5427 26.9697Z" fill="#20005f85"/>
<path fill-rule="evenodd" clip-rule="evenodd" d="M36.8288 26.7738C36.7973 26.8283 36.766 26.8828 36.8214 26.7867C36.7232 26.8391 36.7788 26.8093 36.8346 26.7795L36.8288 26.7738Z" fill="#20005f85"/>
</svg>
