<svg width="15" height="14" viewBox="0 0 15 14" fill="none" xmlns="http://www.w3.org/2000/svg">
<path d="M5.29492 4.23499H8.22693V5.73706H8.26593C8.67193 5.00406 9.66995 4.23499 11.1609 4.23499C14.2529 4.23499 14.825 6.16302 14.825 8.66602V13.766H11.77V9.245C11.77 8.163 11.7449 6.77905 10.1819 6.77905C8.59195 6.77905 8.34595 7.95302 8.34595 9.16602V13.766H5.29492V4.23499Z" fill="#03d025"/>
<path d="M0 4.23499H3.17603V13.765H0V4.23499Z" fill="#03d025"/>
<path d="M3.17603 1.58899C3.17603 2.46699 2.46503 3.17896 1.59003 3.17896C0.711027 3.17896 0 2.46699 0 1.58899C0 0.711989 0.711027 0 1.59003 0C2.46503 0 3.17603 0.711989 3.17603 1.58899Z" fill="#03d025"/>
</svg>
